<svg xmlns="http://www.w3.org/2000/svg" viewBox="0 0 32 32" id="Coding">
  <path d="M28,1H4A3,3,0,0,0,1,4V28a3,3,0,0,0,3,3H28a3,3,0,0,0,3-3V4A3,3,0,0,0,28,1ZM4,3H28a1,1,0,0,1,1,1V7H3V4A1,1,0,0,1,4,3ZM28,29H4a1,1,0,0,1-1-1V9H29V28A1,1,0,0,1,28,29Z" fill="#ffffff" class="color000000 svgShape"></path>
  <path d="M25.5 6H26a1 1 0 000-2h-.5a1 1 0 000 2zM21.5 6H22a1 1 0 000-2h-.5a1 1 0 000 2zM10.71 14.29a1 1 0 00-1.42 0l-4 4a1 1 0 000 1.42l4 4a1 1 0 001.42 0 1 1 0 000-1.42L7.41 19l3.3-3.29A1 1 0 0010.71 14.29zM22.71 14.29a1 1 0 00-1.42 1.42L24.59 19l-3.3 3.29a1 1 0 000 1.42 1 1 0 001.42 0l4-4a1 1 0 000-1.42zM18.32 12.05a1 1 0 00-1.27.63l-4 12A1 1 0 0013.68 26 1.25 1.25 0 0014 26a1 1 0 00.95-.68l4-12A1 1 0 0018.32 12.05z" fill="#ffffff" class="color000000 svgShape"></path>
</svg>
